<?xml version="1.0" standalone="no"?>
<!DOCTYPE svg PUBLIC "-//W3C//DTD SVG 20010904//EN"
 "http://www.w3.org/TR/2001/REC-SVG-20010904/DTD/svg10.dtd">
<svg version="1.0" xmlns="http://www.w3.org/2000/svg"
 width="1792.000000pt" height="464.000000pt" viewBox="0 0 1792.000000 464.000000"
 preserveAspectRatio="xMidYMid meet">

<g transform="translate(0.000000,464.000000) scale(0.100000,-0.100000)"
fill="#000000" stroke="none">
<path d="M0 2320 l0 -2320 8960 0 8960 0 0 2320 0 2320 -8960 0 -8960 0 0
-2320z m9111 2148 c70 -74 176 -267 219 -397 95 -291 46 -542 -150 -771 l-29
-35 -1 137 c0 128 2 139 24 172 13 20 32 68 41 107 34 137 2 305 -92 493 -43
86 -45 88 -60 67 -25 -37 -92 -199 -113 -274 -37 -133 -19 -304 40 -392 18
-27 20 -47 20 -173 0 -90 -4 -141 -10 -137 -17 10 -152 218 -172 264 -37 87
-51 177 -46 305 4 106 9 134 42 230 65 193 203 426 252 426 7 0 23 -10 35 -22z
m-500 -51 c66 -50 41 -150 -41 -163 -70 -11 -121 67 -86 134 9 17 21 32 28 35
24 10 83 6 99 -6z m1043 -18 c42 -50 29 -108 -29 -136 -35 -17 -38 -17 -73 2
-84 46 -56 165 39 165 29 0 43 -7 63 -31z m-1224 -365 c58 -25 123 -55 145
-67 l40 -23 3 -91 3 -91 -153 79 c-84 43 -157 79 -162 79 -24 1 21 -282 66
-408 52 -150 139 -297 236 -403 29 -31 52 -61 52 -67 0 -10 -56 -22 -109 -22
-27 0 -32 -3 -27 -17 6 -15 5 -15 -13 1 -11 10 -18 23 -14 29 3 5 1 7 -4 4
-23 -14 -142 145 -203 268 -103 208 -132 343 -134 618 -1 142 2 179 13 186 19
12 133 -21 261 -75z m1556 53 c15 -46 8 -340 -10 -431 -48 -244 -163 -484
-299 -623 l-51 -53 -34 20 c-18 11 -42 20 -53 20 -19 0 -24 10 -19 39 2 13 -1
13 -17 1 -10 -8 5 10 32 40 75 82 121 149 176 257 83 163 111 269 134 511 l6
64 -154 -81 c-85 -44 -157 -78 -160 -74 -9 8 -9 136 -1 158 14 37 392 193 431
178 7 -3 15 -15 19 -26z m-864 -224 c15 -14 18 -32 18 -125 l0 -109 -57 3
c-67 4 -70 9 -72 128 -1 91 14 120 61 120 17 0 40 -7 50 -17z m-1257 -19 c20
-8 45 -56 45 -87 0 -61 -73 -102 -130 -72 -78 41 -53 165 34 165 19 0 42 -3
51 -6z m2520 -19 c45 -44 23 -124 -38 -144 -61 -21 -105 10 -114 78 -5 33 -1
44 20 65 36 36 98 36 132 1z m-1740 -248 c26 -94 75 -193 143 -287 44 -61 62
-93 61 -115 0 -16 -3 -25 -5 -19 -3 8 -16 9 -41 4 -19 -5 -42 -6 -51 -2 -11 4
-14 1 -9 -11 4 -11 2 -14 -9 -10 -7 3 -14 9 -14 15 0 5 -5 6 -12 2 -8 -5 -9
-2 -5 10 4 10 3 15 -3 11 -15 -9 -98 104 -145 200 -52 105 -73 179 -82 288
l-6 78 80 -51 c80 -51 81 -52 98 -113z m1035 90 c0 -78 -30 -187 -77 -280 -36
-72 -109 -187 -119 -187 -3 0 -2 4 1 10 3 5 -7 12 -22 16 -53 11 -63 15 -63
25 0 5 -7 9 -15 9 -23 0 -18 21 16 75 40 63 76 143 103 227 20 64 24 70 91
117 39 28 73 50 78 51 4 0 7 -28 7 -63z m-1999 -211 c108 -27 210 -66 335
-128 131 -65 178 -121 154 -182 -14 -38 -48 -33 -143 18 -129 70 -267 123
-394 151 -64 15 -125 31 -136 36 -25 14 -39 54 -27 83 20 52 68 57 211 22z
m2979 -3 c24 -30 21 -67 -8 -94 -9 -9 -64 -27 -121 -39 -142 -29 -255 -71
-388 -141 -62 -32 -118 -59 -125 -59 -20 0 -48 32 -48 57 0 35 24 66 88 111
145 101 389 189 534 191 39 1 50 -3 68 -26z m-2803 -442 c181 -47 425 -144
554 -222 139 -83 293 -218 359 -313 36 -54 83 -152 78 -165 -6 -19 -165 85
-384 252 -161 121 -384 234 -537 271 -27 6 -26 5 24 -66 29 -40 83 -107 120
-150 38 -42 69 -79 69 -82 0 -3 -18 -31 -40 -62 l-40 -57 -90 91 c-95 96 -179
216 -256 365 -96 185 -84 196 143 138z m1259 31 c29 -19 34 -56 34 -255 0
-262 -12 -549 -21 -517 -4 14 -7 19 -8 13 -1 -9 -17 -13 -46 -13 -36 0 -45 -4
-47 -17 -6 -70 -16 205 -17 455 -1 289 0 303 19 322 20 20 65 26 86 12z m1364
-12 c8 -16 5 -34 -18 -88 -36 -86 -126 -240 -186 -317 -53 -67 -175 -195 -187
-195 -4 0 -29 25 -56 56 l-48 57 57 51 c54 49 139 147 186 213 l23 33 -33 -7
c-67 -12 -206 -66 -297 -115 -117 -62 -190 -110 -306 -203 -72 -58 -207 -151
-302 -208 -9 -5 -10 0 -4 20 43 146 172 296 368 426 165 110 375 198 638 267
132 35 151 36 165 10z m184 -332 c9 -12 16 -34 16 -48 -1 -20 -3 -22 -10 -10
-5 9 -25 17 -44 18 -20 2 -45 6 -56 10 -19 7 -19 9 -4 30 21 30 77 30 98 0z
m-2371 -270 c38 -29 113 -75 165 -103 53 -27 97 -55 99 -60 2 -6 -19 -12 -49
-13 -29 -1 -59 -9 -68 -17 -9 -8 -25 -15 -36 -15 -16 0 -17 2 -4 10 13 8 13
10 -1 10 -9 0 -22 -6 -29 -14 -12 -16 -44 -10 -34 6 3 5 -1 8 -9 6 -16 -3
-153 80 -181 111 -17 19 -16 21 26 74 24 31 45 56 47 56 2 1 35 -22 74 -51z
m1677 -5 l41 -58 -34 -30 c-47 -40 -176 -117 -187 -110 -4 3 -10 -2 -14 -10
-3 -8 -13 -15 -21 -15 -9 0 -23 -7 -31 -15 -9 -8 -20 -15 -27 -15 -6 0 -2 7 9
15 16 12 17 14 2 15 -9 0 -20 9 -23 20 -5 15 -12 19 -26 15 -27 -9 -59 3 -59
23 0 14 -2 13 -13 -2 -11 -15 -14 -16 -14 -3 0 17 44 42 67 38 8 -2 12 0 8 4
-4 4 34 32 85 63 50 30 112 70 137 88 25 19 48 34 52 34 4 0 25 -26 48 -57z
m-1375 -171 c-3 -3 -11 0 -18 7 -9 10 -8 11 6 5 10 -3 15 -9 12 -12z m-825
-159 c-59 -3 -90 -7 -81 -12 12 -8 12 -12 -2 -25 -8 -9 -20 -16 -26 -16 -18 0
-70 -51 -65 -64 3 -7 -2 -19 -11 -26 -11 -9 -15 -9 -15 -1 0 7 -5 9 -10 6 -6
-4 -8 -12 -4 -18 11 -24 -48 49 -62 76 -22 40 -10 65 34 72 20 4 44 8 52 10 8
1 76 2 150 2 106 -1 114 -2 40 -4z m2503 0 c-7 -2 -19 -2 -25 0 -7 3 -2 5 12
5 14 0 19 -2 13 -5z m177 -3 c-30 -3 -77 -4 -105 0 -39 6 -26 7 55 7 86 0 95
-1 50 -7z m197 -22 c15 -12 18 -42 3 -33 -6 4 -8 10 -6 14 3 4 -8 8 -25 9 -17
0 -36 5 -42 10 -7 6 -21 12 -32 16 -11 3 5 3 35 0 30 -3 60 -10 67 -16z
m-2189 -1064 c15 -9 62 -59 106 -112 73 -89 77 -96 60 -109 -66 -49 -191 36
-240 163 -17 45 -17 47 1 60 25 18 41 18 73 -2z m-983 -36 c103 -53 154 -137
155 -252 0 -38 -5 -87 -12 -108 -16 -53 -84 -127 -143 -157 -66 -33 -180 -35
-246 -4 -104 47 -177 147 -186 254 -11 117 84 250 207 290 14 5 59 7 100 5 57
-2 87 -9 125 -28z m1345 10 c53 -27 85 -71 94 -128 18 -113 -56 -202 -183
-220 -100 -14 -144 -40 -201 -118 -99 -135 -194 -118 -126 23 53 106 172 187
303 206 37 5 75 17 85 26 45 41 -1 113 -73 113 -49 0 -90 22 -114 62 -29 49
-17 58 83 58 71 0 96 -4 132 -22z m1003 -8 c122 -57 190 -206 153 -332 -32
-111 -120 -187 -232 -202 -52 -6 -158 10 -150 23 3 4 -5 7 -17 7 -12 -1 -22 4
-22 11 0 6 -4 15 -9 20 -5 5 -6 3 -2 -4 4 -7 3 -13 -2 -13 -15 0 -33 26 -24
35 4 5 2 5 -4 2 -15 -9 -57 39 -79 92 -64 146 28 334 184 378 59 17 148 9 204
-17z m1437 -25 l0 -55 -140 0 -141 0 3 -62 3 -63 118 -3 117 -3 0 -44 c0 -28
-5 -46 -12 -47 -7 -1 -60 -2 -118 -3 l-105 0 -3 -67 -3 -68 141 0 140 0 0 -45
0 -45 -185 0 -185 0 0 275 0 275 183 3 c100 1 183 3 185 5 1 1 2 -23 2 -53z
m-4973 25 c55 -25 83 -70 83 -135 0 -27 -7 -63 -15 -78 -13 -26 -13 -31 12
-69 35 -52 38 -133 7 -174 -49 -66 -58 -69 -260 -72 l-184 -3 0 275 0 276 158
0 c133 0 163 -3 199 -20z m503 -255 l0 -275 -60 0 -60 0 0 275 0 275 60 0 60
0 0 -275z m1500 263 c0 -7 -3 -30 -6 -50 l-7 -38 -143 0 -144 0 0 -65 0 -65
118 0 117 0 -3 -50 -4 -50 -114 0 -114 0 -1 -47 c0 -27 -2 -56 -4 -65 -3 -17
9 -18 148 -18 l152 0 -3 -45 -4 -45 -194 0 -194 0 0 275 0 275 200 0 c153 0
200 -3 200 -12z m790 -218 l0 -230 140 0 140 0 0 -33 c0 -55 -8 -57 -196 -57
l-171 0 -7 61 c-3 34 -6 158 -6 275 l0 214 50 0 50 0 0 -230z m1437 215 c21
-9 46 -23 56 -33 83 -75 72 -236 -20 -282 -15 -8 -29 -15 -31 -16 -4 -2 97
-163 116 -186 14 -17 11 -18 -40 -18 -63 0 -63 0 -132 113 l-48 77 -64 0 -64
0 0 -95 0 -95 -50 0 -50 0 0 275 0 275 145 0 c108 0 155 -4 182 -15z m1334 0
c81 -29 122 -87 122 -172 0 -59 -17 -92 -71 -140 l-36 -31 57 -94 57 -93 -53
-3 c-59 -4 -51 -10 -123 106 l-46 72 -64 0 -64 0 0 -90 0 -90 -45 0 c-40 0
-45 3 -45 23 -1 12 -3 136 -6 275 l-6 252 140 0 c100 0 152 -4 183 -15z"/>
<path d="M7285 880 c-12 -4 -27 -15 -34 -24 -7 -9 -19 -16 -26 -16 -37 0 -58
-149 -31 -215 18 -43 83 -84 144 -91 41 -5 52 -2 89 25 56 41 73 69 80 133 11
106 -69 199 -170 197 -18 0 -41 -4 -52 -9z"/>
<path d="M9625 873 c-75 -39 -109 -100 -103 -180 9 -100 88 -167 190 -160 182
11 230 258 66 343 -36 19 -115 17 -153 -3z"/>
<path d="M6050 836 c0 -58 14 -68 96 -64 59 3 69 6 87 30 19 25 19 28 3 52
-15 25 -21 26 -101 26 l-85 0 0 -44z"/>
<path d="M6056 644 c-3 -9 -6 -36 -6 -60 l0 -44 104 0 c113 0 116 2 116 59 0
48 -26 61 -122 61 -69 0 -87 -3 -92 -16z"/>
<path d="M10290 805 l0 -85 89 0 c74 0 92 3 115 21 21 16 26 29 26 64 0 35 -5
48 -26 64 -23 18 -41 21 -115 21 l-89 0 0 -85z"/>
<path d="M11630 805 l0 -85 98 0 c117 0 132 9 132 83 0 37 -5 49 -26 66 -23
18 -41 21 -115 21 l-89 0 0 -85z"/>
</g>
</svg>
